<?xml version="1.0" encoding="iso-8859-1"?>
<!-- Generator: Adobe Illustrator 18.0.0, SVG Export Plug-In . SVG Version: 6.00 Build 0)  -->
<!DOCTYPE svg PUBLIC "-//W3C//DTD SVG 1.1//EN" "http://www.w3.org/Graphics/SVG/1.1/DTD/svg11.dtd">
<svg version="1.1" id="Capa_1" xmlns="http://www.w3.org/2000/svg" xmlns:xlink="http://www.w3.org/1999/xlink" x="0px" y="0px"
	 viewBox="0 0 486 486" style="enable-background:new 0 0 486 486;" xml:space="preserve">
<g>
	<path d="M483.867,56.84c-1.71-2.019-4.222-3.183-6.867-3.183c-37.238,0-72.853,11.558-102.994,33.425l-53.848,39.066
		c-48.719-23.665-105.599-23.664-154.317,0l-53.847-39.066C81.853,65.216,46.238,53.657,9,53.657c-2.646,0-5.157,1.164-6.867,3.183
		c-1.71,2.019-2.445,4.688-2.01,7.297l12.304,73.822c6.6,39.601,27.043,75.774,57.565,101.856
		c8.314,7.105,18.906,10.703,29.829,10.126c11.252-0.591,21.538,5.654,26.201,15.913c2.923,6.431,5.199,13.184,6.765,20.072
		l5.225,22.991c8.323,36.62,25.871,70.847,50.747,98.981c13.735,15.534,33.505,24.443,54.242,24.443
		c20.736,0,40.506-8.909,54.241-24.443c24.876-28.134,42.424-62.361,50.747-98.981l5.225-22.991
		c1.565-6.888,3.841-13.642,6.765-20.073c4.663-10.259,14.947-16.503,26.201-15.913c10.925,0.574,21.515-3.021,29.829-10.126
		c30.522-26.082,50.966-62.255,57.565-101.856l12.304-73.823C486.313,61.527,485.577,58.858,483.867,56.84z M98.875,231.967
		c-6.297,0.332-12.398-1.741-17.189-5.835c-27.308-23.336-45.599-55.7-51.504-91.131L19.684,72.013
		c21.996,1.47,43.181,7.483,62.544,17.697c18.71,15.148,31.504,35.575,39.091,62.441c2.456,8.699,1.958,18.161-1.404,26.643
		c-7.713,19.462-9.724,40.6-10.137,53.902C107.023,232.176,99.692,231.924,98.875,231.967z M283.757,395.976
		c-10.321,11.672-25.176,18.367-40.757,18.367c-15.581,0-30.437-6.694-40.757-18.367c-22.882-25.878-39.023-57.362-46.679-91.047
		l-2.674-11.765c2.676,1.29,5.45,2.325,8.323,3.095c4.288,1.15,8.434,1.604,12.309,1.604c1.102,0,2.176-0.043,3.231-0.11
		c-0.499,2.509-0.754,5.07-0.754,7.665c0,14.19,7.572,26.645,18.887,33.538l17.18,16.806c8.817,8.625,19.875,12.938,30.933,12.938
		c11.058,0,22.116-4.313,30.934-12.938l17.18-16.806C302.429,332.062,310,319.607,310,305.417c0-2.604-0.255-5.173-0.758-7.691
		c1.146,0.08,2.311,0.137,3.513,0.137c3.874,0,8.022-0.454,12.309-1.604c2.761-0.741,5.433-1.723,8.012-2.944l-2.64,11.615
		C322.78,338.614,306.639,370.098,283.757,395.976z M243,304.498c-6.205,0-11.017-3.393-11.017-6.312
		c0-1.669,4.524-3.528,11.017-3.528s11.018,1.859,11.018,3.528C254.018,301.104,249.205,304.498,243,304.498z M259.729,344.349
		c-9.865,8.28-23.593,8.28-33.459,0c6.466-0.926,12.275-3.917,16.729-8.287C247.454,340.432,253.263,343.423,259.729,344.349z
		 M343.592,258.407c-0.207,0.454-0.401,0.914-0.602,1.371c-13.27,21.547-29.496,21.533-38.889,19.099
		c-3.979-1.031-7.59-3.155-10.533-6.023l-23.014-22.427c-3.433-3.345-8.955-3.676-12.516-0.466
		c-3.901,3.517-3.969,9.535-0.268,13.143l27.816,27.106c2.03,1.974,3.627,4.316,4.745,6.953c1.12,2.648,1.681,5.456,1.669,8.346
		c-0.049,11.786-10.001,21.15-21.787,21.15H264c-4.379,0-8.207-2.366-10.303-5.879c10.72-3.576,18.32-12.352,18.32-22.593
		c0-13.078-11.39-21.528-29.018-21.528s-29.017,8.45-29.017,21.528c0,10.241,7.6,19.017,18.32,22.593
		c-2.096,3.513-5.923,5.879-10.303,5.879h-6.208c-11.773,0-21.724-9.342-21.791-21.115c-0.017-2.901,0.546-5.721,1.666-8.372
		c1.121-2.645,2.719-4.987,4.753-6.966l27.597-26.883c3.433-3.345,3.909-8.855,0.796-12.499c-3.412-3.993-9.429-4.219-13.132-0.611
		l-23.319,22.716c-3.19,3.108-7.162,5.321-11.514,6.268c-9.822,2.137-25.809,1.093-38.676-21.287
		c-3.358-7.161-8.375-13.116-14.468-17.514c-0.107-9.834,0.601-33.913,8.945-54.968c4.809-12.133,5.517-25.687,1.993-38.166
		c-2.566-9.089-5.684-17.535-9.353-25.393l30.428,22.075c2.771,2.01,6.442,2.274,9.473,0.682
		c46.219-24.295,101.406-24.295,147.625,0c3.03,1.593,6.703,1.328,9.473-0.682l30.341-22.012c-3.635,7.81-6.719,16.207-9.267,25.231
		c-3.523,12.479-2.815,26.032,1.994,38.165c8.338,21.038,9.041,45.274,8.938,55.069
		C352.058,244.894,346.948,251.023,343.592,258.407z M455.819,135c-5.905,35.431-24.196,67.795-51.504,91.131
		c-4.791,4.094-10.896,6.168-17.189,5.835c-3.718-0.195-7.37,0.066-10.9,0.732c-0.406-13.296-2.406-34.492-10.14-54.005
		c-3.361-8.482-3.86-17.944-1.404-26.642c7.545-26.718,20.244-47.063,38.785-62.186c19.444-10.311,40.738-16.375,62.85-17.852
		L455.819,135z"/>
	<path d="M197.16,232.616c-6.113-7.272-12.713-10.959-19.617-10.959c-12.597,0-27.87,13.796-32.25,18.024
		c-1.757,1.696-2.75,4.033-2.75,6.476s0.993,4.78,2.75,6.476c4.381,4.228,19.653,18.024,32.25,18.024
		c14.663,0,24.218-16.95,25.985-20.348c1.353-2.603,1.353-5.701,0-8.304C203.275,241.519,200.946,237.12,197.16,232.616z
		 M177.543,252.657c-2.165,0-7.008-2.7-12.08-6.489c4.878-3.641,9.802-6.511,12.08-6.511c1.474,0,4.631,2.731,7.399,6.5
		C182.174,249.926,179.017,252.657,177.543,252.657z"/>
	<path d="M308.458,221.657c-14.663,0-24.218,16.95-25.985,20.348c-1.353,2.603-1.353,5.701,0,8.304
		c0.253,0.487,2.582,4.885,6.368,9.389c6.113,7.272,12.713,10.959,19.617,10.959c12.597,0,27.87-13.796,32.25-18.024
		c1.757-1.696,2.75-4.033,2.75-6.476s-0.993-4.78-2.75-6.476C336.327,235.453,321.055,221.657,308.458,221.657z M308.458,252.657
		c-1.474,0-4.631-2.731-7.399-6.5c2.769-3.769,5.926-6.5,7.399-6.5c2.165,0,7.008,2.7,12.08,6.489
		C315.659,249.787,310.736,252.657,308.458,252.657z"/>
	<path d="M181.461,186.157c-4.971,0-9,4.03-9,9s4.029,9,9,9c5.79,0,10.5,4.71,10.5,10.5c0,4.97,4.029,9,9,9s9-4.03,9-9
		C209.961,198.942,197.176,186.157,181.461,186.157z"/>
	<path d="M294.039,214.657c0-5.79,4.71-10.5,10.5-10.5c4.971,0,9-4.03,9-9s-4.029-9-9-9c-15.715,0-28.5,12.785-28.5,28.5
		c0,4.97,4.029,9,9,9S294.039,219.628,294.039,214.657z"/>
</g>
<g>
</g>
<g>
</g>
<g>
</g>
<g>
</g>
<g>
</g>
<g>
</g>
<g>
</g>
<g>
</g>
<g>
</g>
<g>
</g>
<g>
</g>
<g>
</g>
<g>
</g>
<g>
</g>
<g>
</g>
</svg>
